<svg id="logo" xmlns="http://www.w3.org/2000/svg" width="80" height="45" viewBox="0 0 109.931 53" class="header-logo">
          <g id="レイヤー_1" data-name="レイヤー 1">
            <path id="パス_1" data-name="パス 1" d="M193.611,53.18v3.637H180.747c-1.786,0-3.131.592-3.768,2.353a3.535,3.535,0,0,0,3.266,4.952c2.654.09,5.348,0,8.027.04,4.39.09,7.4,2.835,7.636,6.883.251,4.269-2.508,7.821-6.858,8.057-5.253.286-10.535.065-15.944.065V75.354h6.02c3.08,0,6.156.055,9.231-.04a3.41,3.41,0,0,0,3.366-3.718,3.351,3.351,0,0,0-3.346-3.512c-2.6-.1-5.218,0-7.826-.045-4.952-.06-8-2.95-7.982-7.525,0-4.47,3.236-7.49,8.082-7.525,4.144-.025,8.293,0,12.442,0A2.288,2.288,0,0,1,193.611,53.18Z" transform="translate(-85.993 -26.399)" fill="#fff"></path>
            <path id="パス_2" data-name="パス 2" d="M22.807,79.128H18.713V68.171H4.355V79.037H0V53.125H4.169V64.077H18.643v-11h4.164Z" transform="translate(0 -26.45)" fill="#fff"></path>
            <path id="パス_3" data-name="パス 3" d="M76.2,19.666,73.86,17.659,89.548,0c6.652,5.855,13.26,11.659,20.017,17.609l-7.856,8.845-2.328-2.007,5.744-6.522-3.406-3.115-5.845,6.522-2.328-2.007,5.81-6.557L95.844,9.733l-5.8,6.472-2.293-2.037L93.5,7.646,89.819,4.39Z" transform="translate(-36.805)" fill="#fff"></path>
            <path id="パス_4" data-name="パス 4" d="M98.181,66.33h3.055v8.759a19.176,19.176,0,0,1,2.574-.717,5.554,5.554,0,0,1,6.427,4.841A5.965,5.965,0,0,1,105,86.006c-3.632.4-6.672-1.766-6.783-5.132C98.071,76.1,98.181,71.307,98.181,66.33Zm9.061,13.927a3.01,3.01,0,0,0-3.01-3.09,2.895,2.895,0,0,0-2.97,2.865,2.86,2.86,0,0,0,2.85,3.161,2.92,2.92,0,0,0,3.131-2.935Z" transform="translate(-48.905 -33.053)" fill="#fff"></path>
            <path id="パス_5" data-name="パス 5" d="M63.837,93.5c-2.278.161-4.34.391-6.4.421a5.424,5.424,0,0,1-5.679-5.453,6.02,6.02,0,0,1,5.519-6.221c3.467-.271,6.321,1.841,6.522,5.017C63.952,89.291,63.837,91.357,63.837,93.5ZM57.9,91.1a3.012,3.012,0,1,0-3.123-2.9A3.012,3.012,0,0,0,57.9,91.1Z" transform="translate(-25.788 -40.973)" fill="#fff"></path>
            <path id="パス_6" data-name="パス 6" d="M132.78,93.949c-3.562,0-6.02-2.333-6.02-5.774a5.95,5.95,0,0,1,6.186-5.935,5.753,5.753,0,0,1,5.975,5.9,6.02,6.02,0,0,1-6.141,5.81Zm3.01-5.87a2.87,2.87,0,0,0-3.01-3.01,3.01,3.01,0,1,0,.03,6.02,2.87,2.87,0,0,0,2.965-3.01Z" transform="translate(-63.166 -40.981)" fill="#fff"></path>
            <path id="パス_7" data-name="パス 7" d="M82.169,94.144c0-2.784-.14-5.3.045-7.8.171-2.358,2.077-3.547,5.087-3.361V85.44c-2.077.151-2.182,1.635-2.087,3.341s0,3.311,0,5.2Z" transform="translate(-40.921 -41.341)" fill="#fff"></path>
            <path id="パス_8" data-name="パス 8" d="M161.712,83.219v2.463c-1.931,0-2.358,1.169-2.243,2.885s.03,3.582.03,5.519h-2.915c0-2.7-.181-5.363.055-7.982C156.845,83.871,158.952,82.793,161.712,83.219Z" transform="translate(-77.995 -41.423)" fill="#fff"></path>
          </g>
        </svg>
